<svg width="32" height="32" viewBox="0 0 32 32" fill="none" xmlns="http://www.w3.org/2000/svg">
<path d="M28.84 21.6933L23.68 26.8933L21.88 25.0667L20 26.96L23.6667 30.6667L30.7067 23.5733L28.84 21.6933ZM18.6667 20C18.6667 21.4667 17.4667 22.6667 16 22.6667C14.5333 22.6667 13.3333 21.4667 13.3333 20C13.3333 18.5333 14.5333 17.3333 16 17.3333C17.4667 17.3333 18.6667 18.5333 18.6667 20ZM17.3333 26.6667C17.3333 26.2133 17.3867 25.7733 17.4533 25.3333H7.33334L4.41334 14.6667H27.6L26.48 18.76C27.3867 18.8933 28.24 19.16 29.0133 19.5733L30.6267 13.6933L30.6667 13.3333C30.6667 12.6 30.0667 12 29.3333 12H22.9467L17.1067 3.25333C16.9842 3.07172 16.8188 2.92317 16.6251 2.82091C16.4314 2.71864 16.2155 2.66582 15.9964 2.66714C15.7774 2.66845 15.5621 2.72388 15.3696 2.82847C15.1772 2.93306 15.0136 3.08359 14.8933 3.26667L9.05334 12H2.66667C1.93334 12 1.33334 12.6 1.33334 13.3333C1.33334 13.4533 1.33334 13.5733 1.38667 13.6933L4.77334 26.0533C5.08 27.1733 6.10667 28 7.33334 28H17.4533C17.3867 27.56 17.3333 27.12 17.3333 26.6667ZM16 6.4L19.7333 12H12.2667L16 6.4Z" fill="black"/>
</svg>
