<svg width="32" height="32" viewBox="0 0 32 32" fill="none" xmlns="http://www.w3.org/2000/svg">
<path d="M5.33333 5.33333H7.50133C8.25733 5.33333 8.63466 5.33333 8.936 5.49866C9.06023 5.56705 9.17275 5.65482 9.26933 5.75866C9.50266 6.01066 9.59466 6.37733 9.77733 7.11066L10.02 8.07999C10.1547 8.61866 10.2227 8.88799 10.3267 9.11466C10.5044 9.50145 10.7722 9.84006 11.1077 10.1022C11.4431 10.3643 11.8364 10.5423 12.2547 10.6213C12.5 10.6667 12.7773 10.6667 13.3333 10.6667" stroke="black" stroke-width="2.66667" stroke-linecap="round"/>
<path d="M24 22.6667H10.0667C9.87333 22.6667 9.776 22.6667 9.70133 22.6587C9.5162 22.638 9.33745 22.5788 9.17661 22.4848C9.01577 22.3909 8.8764 22.2642 8.76748 22.1131C8.65857 21.962 8.58253 21.7897 8.54427 21.6074C8.50601 21.4251 8.50637 21.2368 8.54533 21.0547C8.57599 20.9366 8.61203 20.8201 8.65333 20.7053C8.72266 20.5 8.756 20.3973 8.79467 20.3053C8.98447 19.8507 9.29649 19.4576 9.69612 19.1695C10.0958 18.8814 10.5674 18.7097 11.0587 18.6733C11.1573 18.6667 11.2667 18.6667 11.4813 18.6667H18.6667" stroke="black" stroke-width="2.66667" stroke-linecap="round" stroke-linejoin="round"/>
<path d="M19.3707 18.6667H14.632C13.0107 18.6667 12.2 18.6667 11.5747 18.3C11.311 18.1448 11.076 17.9455 10.88 17.7107C10.4133 17.1533 10.28 16.3533 10.0147 14.7547C9.74399 13.1347 9.60932 12.324 9.93065 11.724C10.0643 11.4736 10.2498 11.2545 10.4747 11.0813C11.0133 10.6667 11.8347 10.6667 13.4773 10.6667H22.352C24.2853 10.6667 25.252 10.6667 25.644 11.2987C26.0347 11.932 25.6013 12.796 24.7373 14.5253L24.1413 15.7187C23.424 17.1533 23.0653 17.8707 22.4213 18.268C21.776 18.6667 20.9747 18.6667 19.3707 18.6667Z" stroke="black" stroke-width="2.66667" stroke-linecap="round"/>
<path d="M22.6667 28C23.403 28 24 27.403 24 26.6667C24 25.9303 23.403 25.3333 22.6667 25.3333C21.9303 25.3333 21.3333 25.9303 21.3333 26.6667C21.3333 27.403 21.9303 28 22.6667 28Z" fill="black"/>
<path d="M12 28C12.7364 28 13.3333 27.403 13.3333 26.6667C13.3333 25.9303 12.7364 25.3333 12 25.3333C11.2636 25.3333 10.6667 25.9303 10.6667 26.6667C10.6667 27.403 11.2636 28 12 28Z" fill="black"/>
</svg>
