<svg width="32" height="32" viewBox="0 0 32 32" fill="none" xmlns="http://www.w3.org/2000/svg">
<path d="M25.3333 9.33334H6.66668C6.31305 9.33334 5.97392 9.47382 5.72387 9.72387C5.47382 9.97392 5.33334 10.3131 5.33334 10.6667V28C5.33334 28.3536 5.47382 28.6928 5.72387 28.9428C5.97392 29.1929 6.31305 29.3333 6.66668 29.3333H25.3333C25.687 29.3333 26.0261 29.1929 26.2762 28.9428C26.5262 28.6928 26.6667 28.3536 26.6667 28V10.6667C26.6667 10.3131 26.5262 9.97392 26.2762 9.72387C26.0261 9.47382 25.687 9.33334 25.3333 9.33334Z" stroke="black" stroke-width="2.66667" stroke-linecap="round" stroke-linejoin="round"/>
<path d="M11.3333 12V7.33334C11.3333 6.7205 11.454 6.11367 11.6886 5.54748C11.9231 4.9813 12.2668 4.46685 12.7002 4.03351C13.1335 3.60017 13.648 3.25642 14.2142 3.0219C14.7803 2.78738 15.3872 2.66667 16 2.66667C16.6128 2.66667 17.2197 2.78738 17.7859 3.0219C18.3521 3.25642 18.8665 3.60017 19.2998 4.03351C19.7332 4.46685 20.0769 4.9813 20.3114 5.54748C20.546 6.11367 20.6667 6.7205 20.6667 7.33334V12" stroke="black" stroke-width="2.66667" stroke-linecap="round" stroke-linejoin="round"/>
</svg>
