<svg width="32" height="32" viewBox="0 0 32 32" fill="none" xmlns="http://www.w3.org/2000/svg">
<path d="M16 5C15.4696 5 14.9609 5.21071 14.5858 5.58579C14.2107 5.96086 14 6.46957 14 7C14 7.53043 14.2107 8.03914 14.5858 8.41421C14.9609 8.78929 15.4696 9 16 9C16.5304 9 17.0391 8.78929 17.4142 8.41421C17.7893 8.03914 18 7.53043 18 7C18 6.46957 17.7893 5.96086 17.4142 5.58579C17.0391 5.21071 16.5304 5 16 5ZM12 7C12 5.93913 12.4214 4.92172 13.1716 4.17157C13.9217 3.42143 14.9391 3 16 3C17.0609 3 18.0783 3.42143 18.8284 4.17157C19.5786 4.92172 20 5.93913 20 7C20 8.06087 19.5786 9.07828 18.8284 9.82843C18.0783 10.5786 17.0609 11 16 11C14.9391 11 13.9217 10.5786 13.1716 9.82843C12.4214 9.07828 12 8.06087 12 7ZM25.5 6C25.1022 6 24.7206 6.15804 24.4393 6.43934C24.158 6.72064 24 7.10218 24 7.5C24 7.89782 24.158 8.27936 24.4393 8.56066C24.7206 8.84196 25.1022 9 25.5 9C25.8978 9 26.2794 8.84196 26.5607 8.56066C26.842 8.27936 27 7.89782 27 7.5C27 7.10218 26.842 6.72064 26.5607 6.43934C26.2794 6.15804 25.8978 6 25.5 6ZM22 7.5C22 7.04037 22.0905 6.58525 22.2664 6.16061C22.4423 5.73597 22.7001 5.35013 23.0251 5.02513C23.3501 4.70012 23.736 4.44231 24.1606 4.26642C24.5852 4.09053 25.0404 4 25.5 4C25.9596 4 26.4148 4.09053 26.8394 4.26642C27.264 4.44231 27.6499 4.70012 27.9749 5.02513C28.2999 5.35013 28.5577 5.73597 28.7336 6.16061C28.9095 6.58525 29 7.04037 29 7.5C29 8.42826 28.6313 9.3185 27.9749 9.97487C27.3185 10.6313 26.4283 11 25.5 11C24.5717 11 23.6815 10.6313 23.0251 9.97487C22.3687 9.3185 22 8.42826 22 7.5ZM5 7.5C5 7.10218 5.15804 6.72064 5.43934 6.43934C5.72064 6.15804 6.10218 6 6.5 6C6.89782 6 7.27936 6.15804 7.56066 6.43934C7.84196 6.72064 8 7.10218 8 7.5C8 7.89782 7.84196 8.27936 7.56066 8.56066C7.27936 8.84196 6.89782 9 6.5 9C6.10218 9 5.72064 8.84196 5.43934 8.56066C5.15804 8.27936 5 7.89782 5 7.5ZM6.5 4C5.57174 4 4.6815 4.36875 4.02513 5.02513C3.36875 5.6815 3 6.57174 3 7.5C3 8.42826 3.36875 9.3185 4.02513 9.97487C4.6815 10.6313 5.57174 11 6.5 11C7.42826 11 8.3185 10.6313 8.97487 9.97487C9.63125 9.3185 10 8.42826 10 7.5C10 6.57174 9.63125 5.6815 8.97487 5.02513C8.3185 4.36875 7.42826 4 6.5 4ZM8.651 24.505C8.19873 24.8031 7.67418 24.9732 7.13304 24.9972C6.59189 25.0212 6.05434 24.8983 5.57743 24.6414C5.10052 24.3846 4.70206 24.0034 4.42433 23.5383C4.1466 23.0733 3.99997 22.5417 4 22V15.5C4 15.3674 4.05268 15.2402 4.14645 15.1464C4.24022 15.0527 4.36739 15 4.5 15H8.531C8.62318 14.2681 8.91597 13.5759 9.377 13H4.5C3.83696 13 3.20107 13.2634 2.73223 13.7322C2.26339 14.2011 2 14.837 2 15.5V22C1.99974 22.8611 2.22186 23.7076 2.64484 24.4576C3.06782 25.2076 3.67732 25.8357 4.41431 26.281C5.15129 26.7263 5.99079 26.9737 6.85148 26.9993C7.71216 27.0249 8.56487 26.8277 9.327 26.427C9.01529 25.8201 8.78786 25.1734 8.651 24.505ZM22.673 26.427C23.4351 26.8277 24.2878 27.0249 25.1485 26.9993C26.0092 26.9737 26.8487 26.7263 27.5857 26.281C28.3227 25.8357 28.9322 25.2076 29.3552 24.4576C29.7781 23.7076 30.0003 22.8611 30 22V15.5C30 14.837 29.7366 14.2011 29.2678 13.7322C28.7989 13.2634 28.163 13 27.5 13H22.623C23.084 13.5759 23.3768 14.2681 23.469 15H27.5C27.6326 15 27.7598 15.0527 27.8536 15.1464C27.9473 15.2402 28 15.3674 28 15.5V22C28 22.5417 27.8534 23.0733 27.5757 23.5383C27.2979 24.0034 26.8995 24.3846 26.4226 24.6414C25.9457 24.8983 25.4081 25.0212 24.867 24.9972C24.3258 24.9732 23.8013 24.8031 23.349 24.505C23.2121 25.1734 22.9847 25.8201 22.673 26.427ZM12.5 13C11.837 13 11.2011 13.2634 10.7322 13.7322C10.2634 14.2011 10 14.837 10 15.5V23C10 24.5913 10.6321 26.1174 11.7574 27.2426C12.8826 28.3679 14.4087 29 16 29C17.5913 29 19.1174 28.3679 20.2426 27.2426C21.3679 26.1174 22 24.5913 22 23V15.5C22 14.837 21.7366 14.2011 21.2678 13.7322C20.7989 13.2634 20.163 13 19.5 13H12.5ZM12 15.5C12 15.3674 12.0527 15.2402 12.1464 15.1464C12.2402 15.0527 12.3674 15 12.5 15H19.5C19.6326 15 19.7598 15.0527 19.8536 15.1464C19.9473 15.2402 20 15.3674 20 15.5V23C20 24.0609 19.5786 25.0783 18.8284 25.8284C18.0783 26.5786 17.0609 27 16 27C14.9391 27 13.9217 26.5786 13.1716 25.8284C12.4214 25.0783 12 24.0609 12 23V15.5Z" fill="black"/>
</svg>
